%TF.GenerationSoftware,KiCad,Pcbnew,8.0.6*%
%TF.CreationDate,2024-11-24T10:07:13-07:00*%
%TF.ProjectId,Pellet Stove PCB,50656c6c-6574-4205-9374-6f7665205043,rev?*%
%TF.SameCoordinates,Original*%
%TF.FileFunction,Legend,Top*%
%TF.FilePolarity,Positive*%
%FSLAX46Y46*%
G04 Gerber Fmt 4.6, Leading zero omitted, Abs format (unit mm)*
G04 Created by KiCad (PCBNEW 8.0.6) date 2024-11-24 10:07:13*
%MOMM*%
%LPD*%
G01*
G04 APERTURE LIST*
%ADD10C,0.250000*%
%ADD11C,0.150000*%
%ADD12C,0.100000*%
%ADD13C,0.120000*%
G04 APERTURE END LIST*
D10*
G36*
X99585771Y-124843949D02*
G01*
X99788492Y-124843949D01*
X99788492Y-125486064D01*
X99787440Y-125538408D01*
X99783662Y-125591390D01*
X99776127Y-125642272D01*
X99766510Y-125679748D01*
X99746080Y-125726857D01*
X99718039Y-125768440D01*
X99682385Y-125804497D01*
X99659288Y-125822142D01*
X99611696Y-125847998D01*
X99562840Y-125863878D01*
X99507817Y-125873072D01*
X99454612Y-125875631D01*
X99401071Y-125872703D01*
X99352374Y-125863919D01*
X99301680Y-125846269D01*
X99257579Y-125820649D01*
X99225024Y-125792344D01*
X99193678Y-125752071D01*
X99169953Y-125704341D01*
X99155682Y-125657495D01*
X99147009Y-125605171D01*
X99143935Y-125547369D01*
X99335666Y-125531737D01*
X99340210Y-125583839D01*
X99352338Y-125633286D01*
X99361067Y-125650928D01*
X99396510Y-125686992D01*
X99445136Y-125702860D01*
X99461451Y-125703684D01*
X99510049Y-125697235D01*
X99551822Y-125671589D01*
X99557438Y-125664605D01*
X99575782Y-125618748D01*
X99583529Y-125564547D01*
X99585743Y-125509337D01*
X99585771Y-125501695D01*
X99585771Y-124843949D01*
G37*
G36*
X100327112Y-125112315D02*
G01*
X100381678Y-125122413D01*
X100431417Y-125140084D01*
X100476331Y-125165329D01*
X100516420Y-125198147D01*
X100534654Y-125217397D01*
X100566548Y-125261815D01*
X100591521Y-125314288D01*
X100607045Y-125364169D01*
X100617762Y-125419642D01*
X100623674Y-125480709D01*
X100624943Y-125533589D01*
X100624780Y-125547369D01*
X100141179Y-125547369D01*
X100146574Y-125599070D01*
X100162151Y-125647015D01*
X100187829Y-125685610D01*
X100227773Y-125717554D01*
X100274972Y-125733213D01*
X100299204Y-125734947D01*
X100347781Y-125727112D01*
X100375163Y-125712721D01*
X100408022Y-125674348D01*
X100422058Y-125641158D01*
X100614521Y-125672421D01*
X100593272Y-125719163D01*
X100562944Y-125764668D01*
X100525816Y-125802677D01*
X100497285Y-125823852D01*
X100449172Y-125848882D01*
X100401052Y-125864254D01*
X100347895Y-125873153D01*
X100297250Y-125875631D01*
X100240137Y-125872584D01*
X100187865Y-125863443D01*
X100140436Y-125848207D01*
X100089912Y-125821881D01*
X100046361Y-125786778D01*
X100015394Y-125750823D01*
X99987319Y-125704511D01*
X99966140Y-125653196D01*
X99953474Y-125605231D01*
X99945875Y-125553591D01*
X99943342Y-125498276D01*
X99945656Y-125443269D01*
X99948500Y-125422316D01*
X100144598Y-125422316D01*
X100433049Y-125422316D01*
X100427988Y-125373611D01*
X100411776Y-125325617D01*
X100389818Y-125294333D01*
X100350288Y-125264280D01*
X100300360Y-125250756D01*
X100289434Y-125250369D01*
X100238457Y-125259205D01*
X100195801Y-125285712D01*
X100185143Y-125296531D01*
X100158538Y-125339678D01*
X100146288Y-125389166D01*
X100144598Y-125422316D01*
X99948500Y-125422316D01*
X99952597Y-125392126D01*
X99967034Y-125335854D01*
X99988134Y-125285147D01*
X100015898Y-125240004D01*
X100038108Y-125213000D01*
X100075415Y-125177889D01*
X100116258Y-125150043D01*
X100160640Y-125129461D01*
X100208559Y-125116143D01*
X100260016Y-125110089D01*
X100277955Y-125109685D01*
X100327112Y-125112315D01*
G37*
G36*
X100693900Y-125125317D02*
G01*
X100800879Y-125125317D01*
X100800879Y-125069874D01*
X100802787Y-125016470D01*
X100810114Y-124964537D01*
X100820418Y-124931388D01*
X100848201Y-124889989D01*
X100889220Y-124858941D01*
X100892470Y-124857138D01*
X100939889Y-124838478D01*
X100991747Y-124829697D01*
X101025582Y-124828318D01*
X101076716Y-124830607D01*
X101127229Y-124837477D01*
X101177122Y-124848926D01*
X101187027Y-124851765D01*
X101160893Y-124979993D01*
X101110240Y-124971105D01*
X101072233Y-124969002D01*
X101024308Y-124979853D01*
X101012149Y-124990006D01*
X100995840Y-125036908D01*
X100994075Y-125070362D01*
X100994075Y-125125317D01*
X101138178Y-125125317D01*
X101138178Y-125266001D01*
X100994075Y-125266001D01*
X100994075Y-125860000D01*
X100800879Y-125860000D01*
X100800879Y-125266001D01*
X100693900Y-125266001D01*
X100693900Y-125125317D01*
G37*
G36*
X101159916Y-125125317D02*
G01*
X101266894Y-125125317D01*
X101266894Y-125069874D01*
X101268802Y-125016470D01*
X101276130Y-124964537D01*
X101286434Y-124931388D01*
X101314216Y-124889989D01*
X101355235Y-124858941D01*
X101358485Y-124857138D01*
X101405905Y-124838478D01*
X101457763Y-124829697D01*
X101491598Y-124828318D01*
X101542731Y-124830607D01*
X101593245Y-124837477D01*
X101643138Y-124848926D01*
X101653042Y-124851765D01*
X101626908Y-124979993D01*
X101576255Y-124971105D01*
X101538248Y-124969002D01*
X101490323Y-124979853D01*
X101478164Y-124990006D01*
X101461855Y-125036908D01*
X101460090Y-125070362D01*
X101460090Y-125125317D01*
X101604193Y-125125317D01*
X101604193Y-125266001D01*
X101460090Y-125266001D01*
X101460090Y-125860000D01*
X101266894Y-125860000D01*
X101266894Y-125266001D01*
X101159916Y-125266001D01*
X101159916Y-125125317D01*
G37*
G36*
X102048960Y-125531737D02*
G01*
X102246796Y-125516106D01*
X102259724Y-125566453D01*
X102280885Y-125612879D01*
X102312427Y-125652376D01*
X102319092Y-125658255D01*
X102361208Y-125684119D01*
X102412328Y-125699248D01*
X102466615Y-125703684D01*
X102518019Y-125700458D01*
X102566162Y-125689305D01*
X102611465Y-125665405D01*
X102614626Y-125662896D01*
X102648687Y-125624374D01*
X102664014Y-125577290D01*
X102664452Y-125567152D01*
X102651631Y-125518608D01*
X102643447Y-125507313D01*
X102602519Y-125477670D01*
X102570418Y-125464326D01*
X102521565Y-125449380D01*
X102471743Y-125435722D01*
X102423028Y-125422910D01*
X102407508Y-125418897D01*
X102358825Y-125405404D01*
X102306687Y-125388047D01*
X102261401Y-125369420D01*
X102217228Y-125346082D01*
X102178164Y-125317292D01*
X102142000Y-125278769D01*
X102114718Y-125236716D01*
X102096319Y-125191133D01*
X102086802Y-125142021D01*
X102085352Y-125112372D01*
X102090489Y-125060158D01*
X102105901Y-125010310D01*
X102128827Y-124967048D01*
X102159897Y-124927783D01*
X102198455Y-124894862D01*
X102244504Y-124868287D01*
X102254612Y-124863733D01*
X102303578Y-124846613D01*
X102351579Y-124836099D01*
X102403794Y-124830012D01*
X102452937Y-124828318D01*
X102509877Y-124830399D01*
X102562236Y-124836642D01*
X102610016Y-124847047D01*
X102661307Y-124865028D01*
X102706004Y-124889002D01*
X102738213Y-124913558D01*
X102775848Y-124953574D01*
X102804764Y-124999037D01*
X102824962Y-125049945D01*
X102835335Y-125097916D01*
X102839085Y-125140949D01*
X102635631Y-125140949D01*
X102621698Y-125090654D01*
X102594763Y-125046996D01*
X102579699Y-125033237D01*
X102533858Y-125010697D01*
X102481468Y-125001424D01*
X102450739Y-125000265D01*
X102399200Y-125003747D01*
X102351102Y-125015622D01*
X102312009Y-125035924D01*
X102282319Y-125077003D01*
X102279769Y-125097473D01*
X102296805Y-125144231D01*
X102310055Y-125157313D01*
X102354305Y-125181779D01*
X102401017Y-125198815D01*
X102453184Y-125214197D01*
X102496901Y-125225457D01*
X102549867Y-125239064D01*
X102597388Y-125252774D01*
X102645949Y-125268899D01*
X102692374Y-125287500D01*
X102716475Y-125299218D01*
X102757868Y-125325422D01*
X102796402Y-125360472D01*
X102827606Y-125402044D01*
X102850550Y-125450486D01*
X102863144Y-125500784D01*
X102867749Y-125551152D01*
X102867906Y-125563000D01*
X102863207Y-125616271D01*
X102849111Y-125667395D01*
X102825617Y-125716372D01*
X102819790Y-125725910D01*
X102789576Y-125765546D01*
X102753063Y-125799000D01*
X102710252Y-125826271D01*
X102683747Y-125838750D01*
X102637081Y-125854886D01*
X102585012Y-125866411D01*
X102535018Y-125872714D01*
X102480887Y-125875487D01*
X102464661Y-125875631D01*
X102407139Y-125873490D01*
X102353946Y-125867068D01*
X102305082Y-125856365D01*
X102252159Y-125837869D01*
X102205470Y-125813208D01*
X102171325Y-125787948D01*
X102135842Y-125752150D01*
X102106147Y-125710702D01*
X102082239Y-125663604D01*
X102064118Y-125610857D01*
X102053438Y-125562584D01*
X102048960Y-125531737D01*
G37*
G36*
X103366650Y-125125317D02*
G01*
X103366650Y-125266001D01*
X103234759Y-125266001D01*
X103234759Y-125584982D01*
X103235117Y-125637690D01*
X103236995Y-125687145D01*
X103238422Y-125698066D01*
X103255764Y-125724689D01*
X103288248Y-125734947D01*
X103336503Y-125726174D01*
X103365917Y-125716385D01*
X103382526Y-125850230D01*
X103334103Y-125864692D01*
X103281524Y-125873150D01*
X103230118Y-125875631D01*
X103180415Y-125871113D01*
X103135840Y-125857557D01*
X103092220Y-125830862D01*
X103074291Y-125810907D01*
X103053800Y-125764670D01*
X103047180Y-125733482D01*
X103042601Y-125681153D01*
X103041289Y-125630525D01*
X103041074Y-125593531D01*
X103041074Y-125266001D01*
X102952414Y-125266001D01*
X102952414Y-125125317D01*
X103041074Y-125125317D01*
X103041074Y-124984633D01*
X103234759Y-124875212D01*
X103234759Y-125125317D01*
X103366650Y-125125317D01*
G37*
G36*
X103825647Y-125112315D02*
G01*
X103880212Y-125122413D01*
X103929952Y-125140084D01*
X103974866Y-125165329D01*
X104014954Y-125198147D01*
X104033189Y-125217397D01*
X104065082Y-125261815D01*
X104090055Y-125314288D01*
X104105579Y-125364169D01*
X104116297Y-125419642D01*
X104122209Y-125480709D01*
X104123478Y-125533589D01*
X104123314Y-125547369D01*
X103639713Y-125547369D01*
X103645109Y-125599070D01*
X103660686Y-125647015D01*
X103686364Y-125685610D01*
X103726307Y-125717554D01*
X103773507Y-125733213D01*
X103797739Y-125734947D01*
X103846315Y-125727112D01*
X103873698Y-125712721D01*
X103906556Y-125674348D01*
X103920593Y-125641158D01*
X104113056Y-125672421D01*
X104091807Y-125719163D01*
X104061479Y-125764668D01*
X104024350Y-125802677D01*
X103995819Y-125823852D01*
X103947706Y-125848882D01*
X103899587Y-125864254D01*
X103846429Y-125873153D01*
X103795785Y-125875631D01*
X103738671Y-125872584D01*
X103686400Y-125863443D01*
X103638971Y-125848207D01*
X103588447Y-125821881D01*
X103544895Y-125786778D01*
X103513928Y-125750823D01*
X103485854Y-125704511D01*
X103464674Y-125653196D01*
X103452009Y-125605231D01*
X103444410Y-125553591D01*
X103441877Y-125498276D01*
X103444190Y-125443269D01*
X103447034Y-125422316D01*
X103643133Y-125422316D01*
X103931584Y-125422316D01*
X103926522Y-125373611D01*
X103910311Y-125325617D01*
X103888353Y-125294333D01*
X103848822Y-125264280D01*
X103798895Y-125250756D01*
X103787969Y-125250369D01*
X103736992Y-125259205D01*
X103694336Y-125285712D01*
X103683677Y-125296531D01*
X103657073Y-125339678D01*
X103644822Y-125389166D01*
X103643133Y-125422316D01*
X103447034Y-125422316D01*
X103451131Y-125392126D01*
X103465568Y-125335854D01*
X103486669Y-125285147D01*
X103514432Y-125240004D01*
X103536643Y-125213000D01*
X103573949Y-125177889D01*
X103614793Y-125150043D01*
X103659175Y-125129461D01*
X103707094Y-125116143D01*
X103758551Y-125110089D01*
X103776489Y-125109685D01*
X103825647Y-125112315D01*
G37*
G36*
X104477466Y-125860000D02*
G01*
X104183398Y-125125317D01*
X104386120Y-125125317D01*
X104523384Y-125500230D01*
X104563196Y-125625526D01*
X104578461Y-125578586D01*
X104583224Y-125562512D01*
X104598336Y-125515846D01*
X104603740Y-125500230D01*
X104742470Y-125125317D01*
X104941039Y-125125317D01*
X104651123Y-125860000D01*
X104477466Y-125860000D01*
G37*
G36*
X105382939Y-125112315D02*
G01*
X105437505Y-125122413D01*
X105487244Y-125140084D01*
X105532158Y-125165329D01*
X105572247Y-125198147D01*
X105590481Y-125217397D01*
X105622375Y-125261815D01*
X105647348Y-125314288D01*
X105662872Y-125364169D01*
X105673589Y-125419642D01*
X105679501Y-125480709D01*
X105680770Y-125533589D01*
X105680607Y-125547369D01*
X105197006Y-125547369D01*
X105202401Y-125599070D01*
X105217978Y-125647015D01*
X105243656Y-125685610D01*
X105283600Y-125717554D01*
X105330799Y-125733213D01*
X105355031Y-125734947D01*
X105403608Y-125727112D01*
X105430990Y-125712721D01*
X105463849Y-125674348D01*
X105477885Y-125641158D01*
X105670348Y-125672421D01*
X105649099Y-125719163D01*
X105618771Y-125764668D01*
X105581642Y-125802677D01*
X105553112Y-125823852D01*
X105504999Y-125848882D01*
X105456879Y-125864254D01*
X105403722Y-125873153D01*
X105353077Y-125875631D01*
X105295964Y-125872584D01*
X105243692Y-125863443D01*
X105196263Y-125848207D01*
X105145739Y-125821881D01*
X105102188Y-125786778D01*
X105071221Y-125750823D01*
X105043146Y-125704511D01*
X105021967Y-125653196D01*
X105009301Y-125605231D01*
X105001702Y-125553591D01*
X104999169Y-125498276D01*
X105001483Y-125443269D01*
X105004327Y-125422316D01*
X105200425Y-125422316D01*
X105488876Y-125422316D01*
X105483815Y-125373611D01*
X105467603Y-125325617D01*
X105445645Y-125294333D01*
X105406115Y-125264280D01*
X105356187Y-125250756D01*
X105345261Y-125250369D01*
X105294284Y-125259205D01*
X105251628Y-125285712D01*
X105240969Y-125296531D01*
X105214365Y-125339678D01*
X105202115Y-125389166D01*
X105200425Y-125422316D01*
X105004327Y-125422316D01*
X105008424Y-125392126D01*
X105022861Y-125335854D01*
X105043961Y-125285147D01*
X105071724Y-125240004D01*
X105093935Y-125213000D01*
X105131241Y-125177889D01*
X105172085Y-125150043D01*
X105216467Y-125129461D01*
X105264386Y-125116143D01*
X105315843Y-125110089D01*
X105333782Y-125109685D01*
X105382939Y-125112315D01*
G37*
G36*
X106497599Y-125860000D02*
G01*
X106304647Y-125860000D01*
X106304647Y-125480690D01*
X106303869Y-125425797D01*
X106301132Y-125376741D01*
X106292957Y-125327160D01*
X106292191Y-125324863D01*
X106266560Y-125282156D01*
X106252135Y-125269909D01*
X106206305Y-125251915D01*
X106185212Y-125250369D01*
X106134718Y-125258297D01*
X106095087Y-125278457D01*
X106059818Y-125313280D01*
X106040376Y-125352707D01*
X106030888Y-125403153D01*
X106027153Y-125453237D01*
X106025779Y-125508169D01*
X106025722Y-125523433D01*
X106025722Y-125860000D01*
X105832770Y-125860000D01*
X105832770Y-125125317D01*
X106012044Y-125125317D01*
X106012044Y-125232540D01*
X106049591Y-125190788D01*
X106090606Y-125157675D01*
X106135091Y-125133201D01*
X106183045Y-125117364D01*
X106234467Y-125110165D01*
X106252379Y-125109685D01*
X106302518Y-125113515D01*
X106352367Y-125126204D01*
X106369127Y-125132889D01*
X106413127Y-125157432D01*
X106449239Y-125191995D01*
X106474484Y-125235478D01*
X106486852Y-125273572D01*
X106494566Y-125324856D01*
X106497337Y-125378403D01*
X106497599Y-125403998D01*
X106497599Y-125860000D01*
G37*
G36*
X106620942Y-125656789D02*
G01*
X106814626Y-125625526D01*
X106833372Y-125672787D01*
X106864696Y-125707103D01*
X106910125Y-125727986D01*
X106962298Y-125734838D01*
X106970697Y-125734947D01*
X107021565Y-125731066D01*
X107070562Y-125715299D01*
X107083293Y-125707348D01*
X107108298Y-125663724D01*
X107108695Y-125655812D01*
X107095017Y-125619420D01*
X107047898Y-125598484D01*
X107030293Y-125594019D01*
X106974590Y-125581273D01*
X106924230Y-125568801D01*
X106868794Y-125553598D01*
X106821705Y-125538824D01*
X106769807Y-125518862D01*
X106734270Y-125499741D01*
X106696443Y-125467165D01*
X106666806Y-125423584D01*
X106650848Y-125372661D01*
X106647808Y-125334633D01*
X106653720Y-125283467D01*
X106671456Y-125237132D01*
X106701016Y-125195626D01*
X106722547Y-125174654D01*
X106765182Y-125146230D01*
X106810928Y-125128021D01*
X106864552Y-125116030D01*
X106916785Y-125110701D01*
X106954822Y-125109685D01*
X107008262Y-125111489D01*
X107063772Y-125118150D01*
X107111919Y-125129721D01*
X107157929Y-125148955D01*
X107177327Y-125160976D01*
X107214793Y-125193730D01*
X107245033Y-125234289D01*
X107268047Y-125282654D01*
X107277711Y-125312896D01*
X107095505Y-125344159D01*
X107074179Y-125297703D01*
X107051053Y-125274549D01*
X107005698Y-125254998D01*
X106958241Y-125250369D01*
X106907167Y-125253358D01*
X106857983Y-125266638D01*
X106849064Y-125271618D01*
X106827083Y-125310942D01*
X106846378Y-125345868D01*
X106893742Y-125365790D01*
X106942804Y-125379903D01*
X106998857Y-125393879D01*
X107026629Y-125400334D01*
X107081160Y-125413999D01*
X107129165Y-125428796D01*
X107176923Y-125447493D01*
X107220627Y-125470749D01*
X107242051Y-125486308D01*
X107276398Y-125526587D01*
X107296488Y-125576563D01*
X107302379Y-125630411D01*
X107295752Y-125684675D01*
X107275872Y-125734533D01*
X107247074Y-125775154D01*
X107218604Y-125803335D01*
X107178107Y-125831505D01*
X107129920Y-125852756D01*
X107082496Y-125865464D01*
X107029422Y-125873089D01*
X106970697Y-125875631D01*
X106916925Y-125873562D01*
X106867531Y-125867353D01*
X106815441Y-125854880D01*
X106769311Y-125836773D01*
X106734515Y-125816769D01*
X106694901Y-125784696D01*
X106662768Y-125747342D01*
X106638115Y-125704707D01*
X106620942Y-125656789D01*
G37*
G36*
X107848969Y-125112321D02*
G01*
X107905457Y-125122442D01*
X107957739Y-125140153D01*
X108005813Y-125165455D01*
X108049679Y-125198348D01*
X108070034Y-125217641D01*
X108105975Y-125260133D01*
X108134480Y-125306644D01*
X108155549Y-125357174D01*
X108169182Y-125411722D01*
X108174862Y-125460249D01*
X108175792Y-125490704D01*
X108173180Y-125541223D01*
X108163151Y-125598192D01*
X108145599Y-125651178D01*
X108120526Y-125700179D01*
X108087931Y-125745196D01*
X108068813Y-125766210D01*
X108026847Y-125803396D01*
X107981000Y-125832889D01*
X107931272Y-125854687D01*
X107877663Y-125868792D01*
X107820172Y-125875204D01*
X107800146Y-125875631D01*
X107750534Y-125872792D01*
X107702083Y-125864274D01*
X107654791Y-125850077D01*
X107608660Y-125830202D01*
X107565948Y-125804724D01*
X107524393Y-125769749D01*
X107489715Y-125728088D01*
X107470418Y-125696601D01*
X107449688Y-125650241D01*
X107434881Y-125599087D01*
X107426783Y-125550396D01*
X107423220Y-125498034D01*
X107423156Y-125492658D01*
X107620872Y-125492658D01*
X107624093Y-125547964D01*
X107633756Y-125596400D01*
X107652326Y-125642680D01*
X107672407Y-125672665D01*
X107710666Y-125708125D01*
X107758854Y-125730021D01*
X107799413Y-125734947D01*
X107848414Y-125727588D01*
X107895285Y-125702772D01*
X107925931Y-125672665D01*
X107952979Y-125628077D01*
X107968757Y-125578525D01*
X107975970Y-125526986D01*
X107977222Y-125491193D01*
X107974016Y-125436543D01*
X107964399Y-125388611D01*
X107945917Y-125342715D01*
X107925931Y-125312896D01*
X107887950Y-125277297D01*
X107839934Y-125255315D01*
X107799413Y-125250369D01*
X107750355Y-125257758D01*
X107703289Y-125282670D01*
X107672407Y-125312896D01*
X107645230Y-125357212D01*
X107629377Y-125406315D01*
X107622130Y-125457293D01*
X107620872Y-125492658D01*
X107423156Y-125492658D01*
X107423035Y-125482400D01*
X107426783Y-125428497D01*
X107438027Y-125375599D01*
X107454315Y-125329422D01*
X107470418Y-125295310D01*
X107496583Y-125252797D01*
X107531930Y-125211355D01*
X107573536Y-125176676D01*
X107604752Y-125157313D01*
X107649479Y-125136476D01*
X107696709Y-125121592D01*
X107746443Y-125112662D01*
X107798681Y-125109685D01*
X107848969Y-125112321D01*
G37*
G36*
X108985945Y-125860000D02*
G01*
X108792993Y-125860000D01*
X108792993Y-125480690D01*
X108792215Y-125425797D01*
X108789478Y-125376741D01*
X108781303Y-125327160D01*
X108780537Y-125324863D01*
X108754907Y-125282156D01*
X108740481Y-125269909D01*
X108694652Y-125251915D01*
X108673558Y-125250369D01*
X108623064Y-125258297D01*
X108583433Y-125278457D01*
X108548164Y-125313280D01*
X108528722Y-125352707D01*
X108519234Y-125403153D01*
X108515499Y-125453237D01*
X108514125Y-125508169D01*
X108514068Y-125523433D01*
X108514068Y-125860000D01*
X108321116Y-125860000D01*
X108321116Y-125125317D01*
X108500390Y-125125317D01*
X108500390Y-125232540D01*
X108537937Y-125190788D01*
X108578953Y-125157675D01*
X108623437Y-125133201D01*
X108671391Y-125117364D01*
X108722813Y-125110165D01*
X108740725Y-125109685D01*
X108790864Y-125113515D01*
X108840713Y-125126204D01*
X108857473Y-125132889D01*
X108901473Y-125157432D01*
X108937585Y-125191995D01*
X108962830Y-125235478D01*
X108975198Y-125273572D01*
X108982912Y-125324856D01*
X108985683Y-125378403D01*
X108985945Y-125403998D01*
X108985945Y-125860000D01*
G37*
G36*
X99479281Y-127540000D02*
G01*
X99119267Y-126523949D01*
X99339818Y-126523949D01*
X99594563Y-127274263D01*
X99841249Y-126523949D01*
X100056915Y-126523949D01*
X99696413Y-127540000D01*
X99479281Y-127540000D01*
G37*
G36*
X100606706Y-127540000D02*
G01*
X100413754Y-127540000D01*
X100413754Y-126804829D01*
X100372764Y-126842638D01*
X100329112Y-126876567D01*
X100282799Y-126906615D01*
X100233823Y-126932781D01*
X100182186Y-126955067D01*
X100164382Y-126961632D01*
X100164382Y-126774054D01*
X100212839Y-126754696D01*
X100258653Y-126730013D01*
X100301129Y-126702299D01*
X100328513Y-126682219D01*
X100369363Y-126646864D01*
X100403251Y-126608702D01*
X100430179Y-126567730D01*
X100450146Y-126523949D01*
X100606706Y-126523949D01*
X100606706Y-127540000D01*
G37*
G36*
X100932526Y-127540000D02*
G01*
X100932526Y-127352421D01*
X101125722Y-127352421D01*
X101125722Y-127540000D01*
X100932526Y-127540000D01*
G37*
G36*
X101659175Y-126527633D02*
G01*
X101707249Y-126538684D01*
X101757692Y-126560888D01*
X101802057Y-126593121D01*
X101835247Y-126628729D01*
X101863533Y-126671486D01*
X101887025Y-126722210D01*
X101905722Y-126780899D01*
X101917228Y-126833587D01*
X101925666Y-126891374D01*
X101931036Y-126954258D01*
X101933049Y-127004768D01*
X101933433Y-127040034D01*
X101932563Y-127092382D01*
X101929955Y-127141895D01*
X101923773Y-127203505D01*
X101914499Y-127260078D01*
X101902134Y-127311613D01*
X101886678Y-127358111D01*
X101863011Y-127409149D01*
X101834515Y-127452316D01*
X101795644Y-127492573D01*
X101750626Y-127522942D01*
X101699460Y-127543423D01*
X101650711Y-127553109D01*
X101606636Y-127555631D01*
X101553499Y-127551647D01*
X101504363Y-127539694D01*
X101459229Y-127519773D01*
X101418096Y-127491884D01*
X101380964Y-127456026D01*
X101369476Y-127442302D01*
X101338931Y-127393562D01*
X101318303Y-127343407D01*
X101302065Y-127284583D01*
X101292234Y-127231280D01*
X101285212Y-127172429D01*
X101280999Y-127108029D01*
X101279683Y-127056088D01*
X101279605Y-127040034D01*
X101481584Y-127040034D01*
X101482019Y-127091214D01*
X101483690Y-127145688D01*
X101487225Y-127199669D01*
X101493354Y-127248739D01*
X101499413Y-127276706D01*
X101516791Y-127324731D01*
X101544354Y-127362435D01*
X101589646Y-127382356D01*
X101606636Y-127383684D01*
X101654904Y-127371457D01*
X101669162Y-127361946D01*
X101698700Y-127321417D01*
X101711660Y-127284277D01*
X101721342Y-127235827D01*
X101726681Y-127187191D01*
X101729732Y-127137875D01*
X101731375Y-127081518D01*
X101731688Y-127040034D01*
X101731253Y-126988931D01*
X101729581Y-126934548D01*
X101726047Y-126880675D01*
X101719918Y-126831727D01*
X101713859Y-126803852D01*
X101696434Y-126755613D01*
X101668674Y-126717634D01*
X101623611Y-126697255D01*
X101606636Y-126695896D01*
X101558367Y-126708124D01*
X101544110Y-126717634D01*
X101514572Y-126758163D01*
X101501612Y-126795303D01*
X101491930Y-126844088D01*
X101486591Y-126892878D01*
X101483539Y-126942251D01*
X101481897Y-126998597D01*
X101481584Y-127040034D01*
X101279605Y-127040034D01*
X101279595Y-127038080D01*
X101280464Y-126985995D01*
X101283072Y-126936718D01*
X101289255Y-126875382D01*
X101298528Y-126819039D01*
X101310893Y-126767686D01*
X101326349Y-126721326D01*
X101350016Y-126670395D01*
X101378513Y-126627264D01*
X101417395Y-126587008D01*
X101462449Y-126556639D01*
X101513673Y-126536157D01*
X101562491Y-126526472D01*
X101606636Y-126523949D01*
X101659175Y-126527633D01*
G37*
G36*
X102467103Y-127274263D02*
G01*
X102467103Y-127102316D01*
X102846168Y-127102316D01*
X102846168Y-127274263D01*
X102467103Y-127274263D01*
G37*
G36*
X103796517Y-127540000D02*
G01*
X103603565Y-127540000D01*
X103603565Y-126804829D01*
X103562576Y-126842638D01*
X103518924Y-126876567D01*
X103472610Y-126906615D01*
X103423635Y-126932781D01*
X103371997Y-126955067D01*
X103354193Y-126961632D01*
X103354193Y-126774054D01*
X103402651Y-126754696D01*
X103448465Y-126730013D01*
X103490940Y-126702299D01*
X103518325Y-126682219D01*
X103559174Y-126646864D01*
X103593063Y-126608702D01*
X103619991Y-126567730D01*
X103639958Y-126523949D01*
X103796517Y-126523949D01*
X103796517Y-127540000D01*
G37*
G36*
X104497983Y-127540000D02*
G01*
X104305031Y-127540000D01*
X104305031Y-126804829D01*
X104264041Y-126842638D01*
X104220389Y-126876567D01*
X104174076Y-126906615D01*
X104125100Y-126932781D01*
X104073463Y-126955067D01*
X104055659Y-126961632D01*
X104055659Y-126774054D01*
X104104116Y-126754696D01*
X104149930Y-126730013D01*
X104192406Y-126702299D01*
X104219790Y-126682219D01*
X104260640Y-126646864D01*
X104294528Y-126608702D01*
X104321456Y-126567730D01*
X104341423Y-126523949D01*
X104497983Y-126523949D01*
X104497983Y-127540000D01*
G37*
G36*
X104720976Y-127540000D02*
G01*
X104970348Y-126523949D01*
X105115184Y-126523949D01*
X104863126Y-127540000D01*
X104720976Y-127540000D01*
G37*
G36*
X105823489Y-127352421D02*
G01*
X105823489Y-127540000D01*
X105146692Y-127540000D01*
X105154935Y-127490235D01*
X105168674Y-127441814D01*
X105187908Y-127394736D01*
X105212637Y-127349002D01*
X105241811Y-127306648D01*
X105274984Y-127265861D01*
X105308387Y-127228711D01*
X105347026Y-127188686D01*
X105390900Y-127145788D01*
X105429769Y-127109399D01*
X105468135Y-127073597D01*
X105507656Y-127035655D01*
X105544779Y-126998314D01*
X105578288Y-126961260D01*
X105589993Y-126946001D01*
X105614253Y-126901694D01*
X105627899Y-126854159D01*
X105629804Y-126828764D01*
X105623166Y-126778428D01*
X105599321Y-126734755D01*
X105595122Y-126730334D01*
X105550827Y-126703463D01*
X105499378Y-126695896D01*
X105448066Y-126703839D01*
X105405400Y-126729820D01*
X105403147Y-126732044D01*
X105376317Y-126776452D01*
X105364359Y-126827124D01*
X105361870Y-126852212D01*
X105169406Y-126833161D01*
X105176544Y-126783772D01*
X105189848Y-126730535D01*
X105208320Y-126683875D01*
X105236405Y-126637751D01*
X105271526Y-126600580D01*
X105277117Y-126596001D01*
X105319030Y-126567926D01*
X105365267Y-126546747D01*
X105415829Y-126532463D01*
X105470714Y-126525075D01*
X105504019Y-126523949D01*
X105557648Y-126526766D01*
X105606796Y-126535215D01*
X105658469Y-126552192D01*
X105704042Y-126576835D01*
X105738248Y-126604061D01*
X105771462Y-126640885D01*
X105799431Y-126687577D01*
X105816746Y-126739185D01*
X105823156Y-126788374D01*
X105823489Y-126803119D01*
X105820054Y-126852967D01*
X105809750Y-126901030D01*
X105799064Y-126932079D01*
X105776762Y-126978733D01*
X105749318Y-127023008D01*
X105721884Y-127060307D01*
X105687606Y-127099141D01*
X105651529Y-127135480D01*
X105612000Y-127172971D01*
X105595366Y-127188290D01*
X105558604Y-127222063D01*
X105520750Y-127257655D01*
X105484762Y-127293512D01*
X105479595Y-127299176D01*
X105449280Y-127337742D01*
X105440027Y-127352421D01*
X105823489Y-127352421D01*
G37*
G36*
X106515429Y-127164842D02*
G01*
X106640481Y-127164842D01*
X106640481Y-127336789D01*
X106515429Y-127336789D01*
X106515429Y-127540000D01*
X106328583Y-127540000D01*
X106328583Y-127336789D01*
X105916545Y-127336789D01*
X105916545Y-127165575D01*
X105917057Y-127164842D01*
X106097285Y-127164842D01*
X106328583Y-127164842D01*
X106328583Y-126833649D01*
X106097285Y-127164842D01*
X105917057Y-127164842D01*
X106353496Y-126539581D01*
X106515429Y-126539581D01*
X106515429Y-127164842D01*
G37*
G36*
X106667103Y-127540000D02*
G01*
X106916475Y-126523949D01*
X107061311Y-126523949D01*
X106809253Y-127540000D01*
X106667103Y-127540000D01*
G37*
G36*
X107769616Y-127352421D02*
G01*
X107769616Y-127540000D01*
X107092819Y-127540000D01*
X107101062Y-127490235D01*
X107114801Y-127441814D01*
X107134035Y-127394736D01*
X107158764Y-127349002D01*
X107187938Y-127306648D01*
X107221111Y-127265861D01*
X107254514Y-127228711D01*
X107293153Y-127188686D01*
X107337027Y-127145788D01*
X107375896Y-127109399D01*
X107414262Y-127073597D01*
X107453783Y-127035655D01*
X107490906Y-126998314D01*
X107524415Y-126961260D01*
X107536120Y-126946001D01*
X107560380Y-126901694D01*
X107574026Y-126854159D01*
X107575931Y-126828764D01*
X107569293Y-126778428D01*
X107545448Y-126734755D01*
X107541249Y-126730334D01*
X107496954Y-126703463D01*
X107445505Y-126695896D01*
X107394193Y-126703839D01*
X107351527Y-126729820D01*
X107349274Y-126732044D01*
X107322444Y-126776452D01*
X107310486Y-126827124D01*
X107307997Y-126852212D01*
X107115533Y-126833161D01*
X107122671Y-126783772D01*
X107135975Y-126730535D01*
X107154447Y-126683875D01*
X107182532Y-126637751D01*
X107217653Y-126600580D01*
X107223244Y-126596001D01*
X107265157Y-126567926D01*
X107311394Y-126546747D01*
X107361956Y-126532463D01*
X107416841Y-126525075D01*
X107450146Y-126523949D01*
X107503775Y-126526766D01*
X107552923Y-126535215D01*
X107604596Y-126552192D01*
X107650169Y-126576835D01*
X107684375Y-126604061D01*
X107717589Y-126640885D01*
X107745558Y-126687577D01*
X107762873Y-126739185D01*
X107769283Y-126788374D01*
X107769616Y-126803119D01*
X107766181Y-126852967D01*
X107755877Y-126901030D01*
X107745191Y-126932079D01*
X107722889Y-126978733D01*
X107695445Y-127023008D01*
X107668011Y-127060307D01*
X107633733Y-127099141D01*
X107597656Y-127135480D01*
X107558127Y-127172971D01*
X107541493Y-127188290D01*
X107504731Y-127222063D01*
X107466877Y-127257655D01*
X107430890Y-127293512D01*
X107425722Y-127299176D01*
X107395407Y-127337742D01*
X107386154Y-127352421D01*
X107769616Y-127352421D01*
G37*
G36*
X108275225Y-126527633D02*
G01*
X108323299Y-126538684D01*
X108373742Y-126560888D01*
X108418107Y-126593121D01*
X108451297Y-126628729D01*
X108479583Y-126671486D01*
X108503075Y-126722210D01*
X108521773Y-126780899D01*
X108533279Y-126833587D01*
X108541716Y-126891374D01*
X108547086Y-126954258D01*
X108549100Y-127004768D01*
X108549483Y-127040034D01*
X108548614Y-127092382D01*
X108546006Y-127141895D01*
X108539823Y-127203505D01*
X108530550Y-127260078D01*
X108518185Y-127311613D01*
X108502729Y-127358111D01*
X108479062Y-127409149D01*
X108450565Y-127452316D01*
X108411694Y-127492573D01*
X108366676Y-127522942D01*
X108315510Y-127543423D01*
X108266761Y-127553109D01*
X108222686Y-127555631D01*
X108169549Y-127551647D01*
X108120413Y-127539694D01*
X108075279Y-127519773D01*
X108034146Y-127491884D01*
X107997014Y-127456026D01*
X107985526Y-127442302D01*
X107954981Y-127393562D01*
X107934354Y-127343407D01*
X107918115Y-127284583D01*
X107908285Y-127231280D01*
X107901263Y-127172429D01*
X107897049Y-127108029D01*
X107895733Y-127056088D01*
X107895655Y-127040034D01*
X108097634Y-127040034D01*
X108098069Y-127091214D01*
X108099741Y-127145688D01*
X108103275Y-127199669D01*
X108109404Y-127248739D01*
X108115464Y-127276706D01*
X108132841Y-127324731D01*
X108160404Y-127362435D01*
X108205696Y-127382356D01*
X108222686Y-127383684D01*
X108270955Y-127371457D01*
X108285212Y-127361946D01*
X108314750Y-127321417D01*
X108327711Y-127284277D01*
X108337392Y-127235827D01*
X108342732Y-127187191D01*
X108345783Y-127137875D01*
X108347426Y-127081518D01*
X108347739Y-127040034D01*
X108347303Y-126988931D01*
X108345632Y-126934548D01*
X108342097Y-126880675D01*
X108335968Y-126831727D01*
X108329909Y-126803852D01*
X108312485Y-126755613D01*
X108284724Y-126717634D01*
X108239661Y-126697255D01*
X108222686Y-126695896D01*
X108174418Y-126708124D01*
X108160160Y-126717634D01*
X108130622Y-126758163D01*
X108117662Y-126795303D01*
X108107980Y-126844088D01*
X108102641Y-126892878D01*
X108099590Y-126942251D01*
X108097947Y-126998597D01*
X108097634Y-127040034D01*
X107895655Y-127040034D01*
X107895645Y-127038080D01*
X107896514Y-126985995D01*
X107899123Y-126936718D01*
X107905305Y-126875382D01*
X107914579Y-126819039D01*
X107926943Y-126767686D01*
X107942399Y-126721326D01*
X107966066Y-126670395D01*
X107994563Y-126627264D01*
X108033446Y-126587008D01*
X108078499Y-126556639D01*
X108129723Y-126536157D01*
X108178541Y-126526472D01*
X108222686Y-126523949D01*
X108275225Y-126527633D01*
G37*
G36*
X109326908Y-127352421D02*
G01*
X109326908Y-127540000D01*
X108650111Y-127540000D01*
X108658354Y-127490235D01*
X108672093Y-127441814D01*
X108691327Y-127394736D01*
X108716057Y-127349002D01*
X108745230Y-127306648D01*
X108778403Y-127265861D01*
X108811807Y-127228711D01*
X108850445Y-127188686D01*
X108894320Y-127145788D01*
X108933189Y-127109399D01*
X108971554Y-127073597D01*
X109011076Y-127035655D01*
X109048198Y-126998314D01*
X109081708Y-126961260D01*
X109093412Y-126946001D01*
X109117672Y-126901694D01*
X109131318Y-126854159D01*
X109133224Y-126828764D01*
X109126585Y-126778428D01*
X109102741Y-126734755D01*
X109098541Y-126730334D01*
X109054246Y-126703463D01*
X109002798Y-126695896D01*
X108951485Y-126703839D01*
X108908819Y-126729820D01*
X108906566Y-126732044D01*
X108879736Y-126776452D01*
X108867778Y-126827124D01*
X108865289Y-126852212D01*
X108672826Y-126833161D01*
X108679963Y-126783772D01*
X108693267Y-126730535D01*
X108711740Y-126683875D01*
X108739825Y-126637751D01*
X108774945Y-126600580D01*
X108780537Y-126596001D01*
X108822450Y-126567926D01*
X108868687Y-126546747D01*
X108919248Y-126532463D01*
X108974134Y-126525075D01*
X109007438Y-126523949D01*
X109061068Y-126526766D01*
X109110215Y-126535215D01*
X109161888Y-126552192D01*
X109207461Y-126576835D01*
X109241667Y-126604061D01*
X109274881Y-126640885D01*
X109302851Y-126687577D01*
X109320165Y-126739185D01*
X109326575Y-126788374D01*
X109326908Y-126803119D01*
X109323473Y-126852967D01*
X109313169Y-126901030D01*
X109302484Y-126932079D01*
X109280181Y-126978733D01*
X109252737Y-127023008D01*
X109225303Y-127060307D01*
X109191025Y-127099141D01*
X109154948Y-127135480D01*
X109115419Y-127172971D01*
X109098785Y-127188290D01*
X109062023Y-127222063D01*
X109024169Y-127257655D01*
X108988182Y-127293512D01*
X108983014Y-127299176D01*
X108952699Y-127337742D01*
X108943447Y-127352421D01*
X109326908Y-127352421D01*
G37*
G36*
X110018848Y-127164842D02*
G01*
X110143900Y-127164842D01*
X110143900Y-127336789D01*
X110018848Y-127336789D01*
X110018848Y-127540000D01*
X109832002Y-127540000D01*
X109832002Y-127336789D01*
X109419965Y-127336789D01*
X109419965Y-127165575D01*
X109420477Y-127164842D01*
X109600704Y-127164842D01*
X109832002Y-127164842D01*
X109832002Y-126833649D01*
X109600704Y-127164842D01*
X109420477Y-127164842D01*
X109856915Y-126539581D01*
X110018848Y-126539581D01*
X110018848Y-127164842D01*
G37*
D11*
X117392969Y-112079819D02*
X116916779Y-112079819D01*
X116916779Y-112079819D02*
X116916779Y-111079819D01*
X118107255Y-112032200D02*
X118012017Y-112079819D01*
X118012017Y-112079819D02*
X117821541Y-112079819D01*
X117821541Y-112079819D02*
X117726303Y-112032200D01*
X117726303Y-112032200D02*
X117678684Y-111936961D01*
X117678684Y-111936961D02*
X117678684Y-111556009D01*
X117678684Y-111556009D02*
X117726303Y-111460771D01*
X117726303Y-111460771D02*
X117821541Y-111413152D01*
X117821541Y-111413152D02*
X118012017Y-111413152D01*
X118012017Y-111413152D02*
X118107255Y-111460771D01*
X118107255Y-111460771D02*
X118154874Y-111556009D01*
X118154874Y-111556009D02*
X118154874Y-111651247D01*
X118154874Y-111651247D02*
X117678684Y-111746485D01*
X118488208Y-111413152D02*
X118726303Y-112079819D01*
X118726303Y-112079819D02*
X118964398Y-111413152D01*
X119726303Y-112032200D02*
X119631065Y-112079819D01*
X119631065Y-112079819D02*
X119440589Y-112079819D01*
X119440589Y-112079819D02*
X119345351Y-112032200D01*
X119345351Y-112032200D02*
X119297732Y-111936961D01*
X119297732Y-111936961D02*
X119297732Y-111556009D01*
X119297732Y-111556009D02*
X119345351Y-111460771D01*
X119345351Y-111460771D02*
X119440589Y-111413152D01*
X119440589Y-111413152D02*
X119631065Y-111413152D01*
X119631065Y-111413152D02*
X119726303Y-111460771D01*
X119726303Y-111460771D02*
X119773922Y-111556009D01*
X119773922Y-111556009D02*
X119773922Y-111651247D01*
X119773922Y-111651247D02*
X119297732Y-111746485D01*
X120345351Y-112079819D02*
X120250113Y-112032200D01*
X120250113Y-112032200D02*
X120202494Y-111936961D01*
X120202494Y-111936961D02*
X120202494Y-111079819D01*
X121440590Y-112032200D02*
X121583447Y-112079819D01*
X121583447Y-112079819D02*
X121821542Y-112079819D01*
X121821542Y-112079819D02*
X121916780Y-112032200D01*
X121916780Y-112032200D02*
X121964399Y-111984580D01*
X121964399Y-111984580D02*
X122012018Y-111889342D01*
X122012018Y-111889342D02*
X122012018Y-111794104D01*
X122012018Y-111794104D02*
X121964399Y-111698866D01*
X121964399Y-111698866D02*
X121916780Y-111651247D01*
X121916780Y-111651247D02*
X121821542Y-111603628D01*
X121821542Y-111603628D02*
X121631066Y-111556009D01*
X121631066Y-111556009D02*
X121535828Y-111508390D01*
X121535828Y-111508390D02*
X121488209Y-111460771D01*
X121488209Y-111460771D02*
X121440590Y-111365533D01*
X121440590Y-111365533D02*
X121440590Y-111270295D01*
X121440590Y-111270295D02*
X121488209Y-111175057D01*
X121488209Y-111175057D02*
X121535828Y-111127438D01*
X121535828Y-111127438D02*
X121631066Y-111079819D01*
X121631066Y-111079819D02*
X121869161Y-111079819D01*
X121869161Y-111079819D02*
X122012018Y-111127438D01*
X122440590Y-112079819D02*
X122440590Y-111079819D01*
X122869161Y-112079819D02*
X122869161Y-111556009D01*
X122869161Y-111556009D02*
X122821542Y-111460771D01*
X122821542Y-111460771D02*
X122726304Y-111413152D01*
X122726304Y-111413152D02*
X122583447Y-111413152D01*
X122583447Y-111413152D02*
X122488209Y-111460771D01*
X122488209Y-111460771D02*
X122440590Y-111508390D01*
X123345352Y-112079819D02*
X123345352Y-111413152D01*
X123345352Y-111079819D02*
X123297733Y-111127438D01*
X123297733Y-111127438D02*
X123345352Y-111175057D01*
X123345352Y-111175057D02*
X123392971Y-111127438D01*
X123392971Y-111127438D02*
X123345352Y-111079819D01*
X123345352Y-111079819D02*
X123345352Y-111175057D01*
X123678685Y-111413152D02*
X124059637Y-111413152D01*
X123821542Y-112079819D02*
X123821542Y-111222676D01*
X123821542Y-111222676D02*
X123869161Y-111127438D01*
X123869161Y-111127438D02*
X123964399Y-111079819D01*
X123964399Y-111079819D02*
X124059637Y-111079819D01*
X124250114Y-111413152D02*
X124631066Y-111413152D01*
X124392971Y-111079819D02*
X124392971Y-111936961D01*
X124392971Y-111936961D02*
X124440590Y-112032200D01*
X124440590Y-112032200D02*
X124535828Y-112079819D01*
X124535828Y-112079819D02*
X124631066Y-112079819D01*
X125345352Y-112032200D02*
X125250114Y-112079819D01*
X125250114Y-112079819D02*
X125059638Y-112079819D01*
X125059638Y-112079819D02*
X124964400Y-112032200D01*
X124964400Y-112032200D02*
X124916781Y-111936961D01*
X124916781Y-111936961D02*
X124916781Y-111556009D01*
X124916781Y-111556009D02*
X124964400Y-111460771D01*
X124964400Y-111460771D02*
X125059638Y-111413152D01*
X125059638Y-111413152D02*
X125250114Y-111413152D01*
X125250114Y-111413152D02*
X125345352Y-111460771D01*
X125345352Y-111460771D02*
X125392971Y-111556009D01*
X125392971Y-111556009D02*
X125392971Y-111651247D01*
X125392971Y-111651247D02*
X124916781Y-111746485D01*
X125821543Y-112079819D02*
X125821543Y-111413152D01*
X125821543Y-111603628D02*
X125869162Y-111508390D01*
X125869162Y-111508390D02*
X125916781Y-111460771D01*
X125916781Y-111460771D02*
X126012019Y-111413152D01*
X126012019Y-111413152D02*
X126107257Y-111413152D01*
X116026666Y-97094819D02*
X116026666Y-97809104D01*
X116026666Y-97809104D02*
X115979047Y-97951961D01*
X115979047Y-97951961D02*
X115883809Y-98047200D01*
X115883809Y-98047200D02*
X115740952Y-98094819D01*
X115740952Y-98094819D02*
X115645714Y-98094819D01*
X117026666Y-98094819D02*
X116455238Y-98094819D01*
X116740952Y-98094819D02*
X116740952Y-97094819D01*
X116740952Y-97094819D02*
X116645714Y-97237676D01*
X116645714Y-97237676D02*
X116550476Y-97332914D01*
X116550476Y-97332914D02*
X116455238Y-97380533D01*
X107793333Y-103744819D02*
X108364761Y-103744819D01*
X108079047Y-104744819D02*
X108079047Y-103744819D01*
X108840952Y-104744819D02*
X108745714Y-104697200D01*
X108745714Y-104697200D02*
X108698095Y-104649580D01*
X108698095Y-104649580D02*
X108650476Y-104554342D01*
X108650476Y-104554342D02*
X108650476Y-104268628D01*
X108650476Y-104268628D02*
X108698095Y-104173390D01*
X108698095Y-104173390D02*
X108745714Y-104125771D01*
X108745714Y-104125771D02*
X108840952Y-104078152D01*
X108840952Y-104078152D02*
X108983809Y-104078152D01*
X108983809Y-104078152D02*
X109079047Y-104125771D01*
X109079047Y-104125771D02*
X109126666Y-104173390D01*
X109126666Y-104173390D02*
X109174285Y-104268628D01*
X109174285Y-104268628D02*
X109174285Y-104554342D01*
X109174285Y-104554342D02*
X109126666Y-104649580D01*
X109126666Y-104649580D02*
X109079047Y-104697200D01*
X109079047Y-104697200D02*
X108983809Y-104744819D01*
X108983809Y-104744819D02*
X108840952Y-104744819D01*
X109936190Y-104221009D02*
X109602857Y-104221009D01*
X109602857Y-104744819D02*
X109602857Y-103744819D01*
X109602857Y-103744819D02*
X110079047Y-103744819D01*
X143573810Y-122914819D02*
X143573810Y-122248152D01*
X143573810Y-122343390D02*
X143621429Y-122295771D01*
X143621429Y-122295771D02*
X143716667Y-122248152D01*
X143716667Y-122248152D02*
X143859524Y-122248152D01*
X143859524Y-122248152D02*
X143954762Y-122295771D01*
X143954762Y-122295771D02*
X144002381Y-122391009D01*
X144002381Y-122391009D02*
X144002381Y-122914819D01*
X144002381Y-122391009D02*
X144050000Y-122295771D01*
X144050000Y-122295771D02*
X144145238Y-122248152D01*
X144145238Y-122248152D02*
X144288095Y-122248152D01*
X144288095Y-122248152D02*
X144383334Y-122295771D01*
X144383334Y-122295771D02*
X144430953Y-122391009D01*
X144430953Y-122391009D02*
X144430953Y-122914819D01*
X144907143Y-122914819D02*
X144907143Y-122248152D01*
X144907143Y-121914819D02*
X144859524Y-121962438D01*
X144859524Y-121962438D02*
X144907143Y-122010057D01*
X144907143Y-122010057D02*
X144954762Y-121962438D01*
X144954762Y-121962438D02*
X144907143Y-121914819D01*
X144907143Y-121914819D02*
X144907143Y-122010057D01*
X145383333Y-122248152D02*
X145383333Y-122914819D01*
X145383333Y-122343390D02*
X145430952Y-122295771D01*
X145430952Y-122295771D02*
X145526190Y-122248152D01*
X145526190Y-122248152D02*
X145669047Y-122248152D01*
X145669047Y-122248152D02*
X145764285Y-122295771D01*
X145764285Y-122295771D02*
X145811904Y-122391009D01*
X145811904Y-122391009D02*
X145811904Y-122914819D01*
X146288095Y-122914819D02*
X146288095Y-122248152D01*
X146288095Y-121914819D02*
X146240476Y-121962438D01*
X146240476Y-121962438D02*
X146288095Y-122010057D01*
X146288095Y-122010057D02*
X146335714Y-121962438D01*
X146335714Y-121962438D02*
X146288095Y-121914819D01*
X146288095Y-121914819D02*
X146288095Y-122010057D01*
X146526190Y-123010057D02*
X147288094Y-123010057D01*
X147907142Y-122867200D02*
X147811904Y-122914819D01*
X147811904Y-122914819D02*
X147621428Y-122914819D01*
X147621428Y-122914819D02*
X147526190Y-122867200D01*
X147526190Y-122867200D02*
X147478571Y-122771961D01*
X147478571Y-122771961D02*
X147478571Y-122391009D01*
X147478571Y-122391009D02*
X147526190Y-122295771D01*
X147526190Y-122295771D02*
X147621428Y-122248152D01*
X147621428Y-122248152D02*
X147811904Y-122248152D01*
X147811904Y-122248152D02*
X147907142Y-122295771D01*
X147907142Y-122295771D02*
X147954761Y-122391009D01*
X147954761Y-122391009D02*
X147954761Y-122486247D01*
X147954761Y-122486247D02*
X147478571Y-122581485D01*
X148335714Y-122867200D02*
X148430952Y-122914819D01*
X148430952Y-122914819D02*
X148621428Y-122914819D01*
X148621428Y-122914819D02*
X148716666Y-122867200D01*
X148716666Y-122867200D02*
X148764285Y-122771961D01*
X148764285Y-122771961D02*
X148764285Y-122724342D01*
X148764285Y-122724342D02*
X148716666Y-122629104D01*
X148716666Y-122629104D02*
X148621428Y-122581485D01*
X148621428Y-122581485D02*
X148478571Y-122581485D01*
X148478571Y-122581485D02*
X148383333Y-122533866D01*
X148383333Y-122533866D02*
X148335714Y-122438628D01*
X148335714Y-122438628D02*
X148335714Y-122391009D01*
X148335714Y-122391009D02*
X148383333Y-122295771D01*
X148383333Y-122295771D02*
X148478571Y-122248152D01*
X148478571Y-122248152D02*
X148621428Y-122248152D01*
X148621428Y-122248152D02*
X148716666Y-122295771D01*
X149192857Y-122248152D02*
X149192857Y-123248152D01*
X149192857Y-122295771D02*
X149288095Y-122248152D01*
X149288095Y-122248152D02*
X149478571Y-122248152D01*
X149478571Y-122248152D02*
X149573809Y-122295771D01*
X149573809Y-122295771D02*
X149621428Y-122343390D01*
X149621428Y-122343390D02*
X149669047Y-122438628D01*
X149669047Y-122438628D02*
X149669047Y-122724342D01*
X149669047Y-122724342D02*
X149621428Y-122819580D01*
X149621428Y-122819580D02*
X149573809Y-122867200D01*
X149573809Y-122867200D02*
X149478571Y-122914819D01*
X149478571Y-122914819D02*
X149288095Y-122914819D01*
X149288095Y-122914819D02*
X149192857Y-122867200D01*
X150002381Y-121914819D02*
X150621428Y-121914819D01*
X150621428Y-121914819D02*
X150288095Y-122295771D01*
X150288095Y-122295771D02*
X150430952Y-122295771D01*
X150430952Y-122295771D02*
X150526190Y-122343390D01*
X150526190Y-122343390D02*
X150573809Y-122391009D01*
X150573809Y-122391009D02*
X150621428Y-122486247D01*
X150621428Y-122486247D02*
X150621428Y-122724342D01*
X150621428Y-122724342D02*
X150573809Y-122819580D01*
X150573809Y-122819580D02*
X150526190Y-122867200D01*
X150526190Y-122867200D02*
X150430952Y-122914819D01*
X150430952Y-122914819D02*
X150145238Y-122914819D01*
X150145238Y-122914819D02*
X150050000Y-122867200D01*
X150050000Y-122867200D02*
X150002381Y-122819580D01*
X151002381Y-122010057D02*
X151050000Y-121962438D01*
X151050000Y-121962438D02*
X151145238Y-121914819D01*
X151145238Y-121914819D02*
X151383333Y-121914819D01*
X151383333Y-121914819D02*
X151478571Y-121962438D01*
X151478571Y-121962438D02*
X151526190Y-122010057D01*
X151526190Y-122010057D02*
X151573809Y-122105295D01*
X151573809Y-122105295D02*
X151573809Y-122200533D01*
X151573809Y-122200533D02*
X151526190Y-122343390D01*
X151526190Y-122343390D02*
X150954762Y-122914819D01*
X150954762Y-122914819D02*
X151573809Y-122914819D01*
X146028095Y-129754819D02*
X146028095Y-130564342D01*
X146028095Y-130564342D02*
X146075714Y-130659580D01*
X146075714Y-130659580D02*
X146123333Y-130707200D01*
X146123333Y-130707200D02*
X146218571Y-130754819D01*
X146218571Y-130754819D02*
X146409047Y-130754819D01*
X146409047Y-130754819D02*
X146504285Y-130707200D01*
X146504285Y-130707200D02*
X146551904Y-130659580D01*
X146551904Y-130659580D02*
X146599523Y-130564342D01*
X146599523Y-130564342D02*
X146599523Y-129754819D01*
X147028095Y-130707200D02*
X147170952Y-130754819D01*
X147170952Y-130754819D02*
X147409047Y-130754819D01*
X147409047Y-130754819D02*
X147504285Y-130707200D01*
X147504285Y-130707200D02*
X147551904Y-130659580D01*
X147551904Y-130659580D02*
X147599523Y-130564342D01*
X147599523Y-130564342D02*
X147599523Y-130469104D01*
X147599523Y-130469104D02*
X147551904Y-130373866D01*
X147551904Y-130373866D02*
X147504285Y-130326247D01*
X147504285Y-130326247D02*
X147409047Y-130278628D01*
X147409047Y-130278628D02*
X147218571Y-130231009D01*
X147218571Y-130231009D02*
X147123333Y-130183390D01*
X147123333Y-130183390D02*
X147075714Y-130135771D01*
X147075714Y-130135771D02*
X147028095Y-130040533D01*
X147028095Y-130040533D02*
X147028095Y-129945295D01*
X147028095Y-129945295D02*
X147075714Y-129850057D01*
X147075714Y-129850057D02*
X147123333Y-129802438D01*
X147123333Y-129802438D02*
X147218571Y-129754819D01*
X147218571Y-129754819D02*
X147456666Y-129754819D01*
X147456666Y-129754819D02*
X147599523Y-129802438D01*
X148361428Y-130231009D02*
X148504285Y-130278628D01*
X148504285Y-130278628D02*
X148551904Y-130326247D01*
X148551904Y-130326247D02*
X148599523Y-130421485D01*
X148599523Y-130421485D02*
X148599523Y-130564342D01*
X148599523Y-130564342D02*
X148551904Y-130659580D01*
X148551904Y-130659580D02*
X148504285Y-130707200D01*
X148504285Y-130707200D02*
X148409047Y-130754819D01*
X148409047Y-130754819D02*
X148028095Y-130754819D01*
X148028095Y-130754819D02*
X148028095Y-129754819D01*
X148028095Y-129754819D02*
X148361428Y-129754819D01*
X148361428Y-129754819D02*
X148456666Y-129802438D01*
X148456666Y-129802438D02*
X148504285Y-129850057D01*
X148504285Y-129850057D02*
X148551904Y-129945295D01*
X148551904Y-129945295D02*
X148551904Y-130040533D01*
X148551904Y-130040533D02*
X148504285Y-130135771D01*
X148504285Y-130135771D02*
X148456666Y-130183390D01*
X148456666Y-130183390D02*
X148361428Y-130231009D01*
X148361428Y-130231009D02*
X148028095Y-130231009D01*
X135312380Y-125674819D02*
X134979047Y-125198628D01*
X134740952Y-125674819D02*
X134740952Y-124674819D01*
X134740952Y-124674819D02*
X135121904Y-124674819D01*
X135121904Y-124674819D02*
X135217142Y-124722438D01*
X135217142Y-124722438D02*
X135264761Y-124770057D01*
X135264761Y-124770057D02*
X135312380Y-124865295D01*
X135312380Y-124865295D02*
X135312380Y-125008152D01*
X135312380Y-125008152D02*
X135264761Y-125103390D01*
X135264761Y-125103390D02*
X135217142Y-125151009D01*
X135217142Y-125151009D02*
X135121904Y-125198628D01*
X135121904Y-125198628D02*
X134740952Y-125198628D01*
X135693333Y-125627200D02*
X135836190Y-125674819D01*
X135836190Y-125674819D02*
X136074285Y-125674819D01*
X136074285Y-125674819D02*
X136169523Y-125627200D01*
X136169523Y-125627200D02*
X136217142Y-125579580D01*
X136217142Y-125579580D02*
X136264761Y-125484342D01*
X136264761Y-125484342D02*
X136264761Y-125389104D01*
X136264761Y-125389104D02*
X136217142Y-125293866D01*
X136217142Y-125293866D02*
X136169523Y-125246247D01*
X136169523Y-125246247D02*
X136074285Y-125198628D01*
X136074285Y-125198628D02*
X135883809Y-125151009D01*
X135883809Y-125151009D02*
X135788571Y-125103390D01*
X135788571Y-125103390D02*
X135740952Y-125055771D01*
X135740952Y-125055771D02*
X135693333Y-124960533D01*
X135693333Y-124960533D02*
X135693333Y-124865295D01*
X135693333Y-124865295D02*
X135740952Y-124770057D01*
X135740952Y-124770057D02*
X135788571Y-124722438D01*
X135788571Y-124722438D02*
X135883809Y-124674819D01*
X135883809Y-124674819D02*
X136121904Y-124674819D01*
X136121904Y-124674819D02*
X136264761Y-124722438D01*
X136550476Y-124674819D02*
X137121904Y-124674819D01*
X136836190Y-125674819D02*
X136836190Y-124674819D01*
D12*
X114443884Y-105612419D02*
X114443884Y-104612419D01*
X114443884Y-105088609D02*
X115015312Y-105088609D01*
X115015312Y-105612419D02*
X115015312Y-104612419D01*
X115348646Y-104612419D02*
X115681979Y-105612419D01*
X115681979Y-105612419D02*
X116015312Y-104612419D01*
X116872455Y-105612419D02*
X116301027Y-105612419D01*
X116586741Y-105612419D02*
X116586741Y-104612419D01*
X116586741Y-104612419D02*
X116491503Y-104755276D01*
X116491503Y-104755276D02*
X116396265Y-104850514D01*
X116396265Y-104850514D02*
X116301027Y-104898133D01*
X127220074Y-118712419D02*
X126743884Y-118712419D01*
X126743884Y-118712419D02*
X126743884Y-117712419D01*
X127410551Y-117712419D02*
X127743884Y-118712419D01*
X127743884Y-118712419D02*
X128077217Y-117712419D01*
X128839122Y-118045752D02*
X128839122Y-118712419D01*
X128601027Y-117664800D02*
X128362932Y-118379085D01*
X128362932Y-118379085D02*
X128981979Y-118379085D01*
D11*
X102003333Y-96694819D02*
X101670000Y-96218628D01*
X101431905Y-96694819D02*
X101431905Y-95694819D01*
X101431905Y-95694819D02*
X101812857Y-95694819D01*
X101812857Y-95694819D02*
X101908095Y-95742438D01*
X101908095Y-95742438D02*
X101955714Y-95790057D01*
X101955714Y-95790057D02*
X102003333Y-95885295D01*
X102003333Y-95885295D02*
X102003333Y-96028152D01*
X102003333Y-96028152D02*
X101955714Y-96123390D01*
X101955714Y-96123390D02*
X101908095Y-96171009D01*
X101908095Y-96171009D02*
X101812857Y-96218628D01*
X101812857Y-96218628D02*
X101431905Y-96218628D01*
X102955714Y-96694819D02*
X102384286Y-96694819D01*
X102670000Y-96694819D02*
X102670000Y-95694819D01*
X102670000Y-95694819D02*
X102574762Y-95837676D01*
X102574762Y-95837676D02*
X102479524Y-95932914D01*
X102479524Y-95932914D02*
X102384286Y-95980533D01*
D13*
%TO.C,J6*%
X106640000Y-105440000D02*
X106640000Y-118160000D01*
X106640000Y-118160000D02*
X110660000Y-118160000D01*
X107140000Y-105940000D02*
X108350000Y-105940000D01*
X107140000Y-117660000D02*
X107140000Y-105940000D01*
X108350000Y-105940000D02*
X108350000Y-105440000D01*
X108350000Y-117660000D02*
X107140000Y-117660000D01*
X108350000Y-118160000D02*
X108350000Y-117660000D01*
X108460000Y-118460000D02*
X110960000Y-118460000D01*
X109160000Y-105440000D02*
X109160000Y-106440000D01*
X109160000Y-106440000D02*
X110660000Y-106440000D01*
X109160000Y-117160000D02*
X110660000Y-117160000D01*
X109160000Y-118160000D02*
X109160000Y-117160000D01*
X110660000Y-105440000D02*
X106640000Y-105440000D01*
X110660000Y-118160000D02*
X110660000Y-105440000D01*
X110960000Y-118460000D02*
X110960000Y-115960000D01*
%TO.C,J4*%
X92630000Y-100700000D02*
X104350000Y-100700000D01*
X92630000Y-112010000D02*
X92630000Y-100700000D01*
X92630000Y-112010000D02*
X92630000Y-123320000D01*
X92630000Y-123320000D02*
X104350000Y-123320000D01*
X93240000Y-103010000D02*
X93240000Y-103510000D01*
X93240000Y-103510000D02*
X98740000Y-103510000D01*
X93240000Y-105510000D02*
X93240000Y-106010000D01*
X93240000Y-106010000D02*
X98740000Y-106010000D01*
X93240000Y-108010000D02*
X93240000Y-108510000D01*
X93240000Y-108510000D02*
X98740000Y-108510000D01*
X93240000Y-110510000D02*
X93240000Y-111010000D01*
X93240000Y-111010000D02*
X98740000Y-111010000D01*
X93240000Y-113010000D02*
X93240000Y-113510000D01*
X93240000Y-113510000D02*
X98740000Y-113510000D01*
X93240000Y-115510000D02*
X93240000Y-116010000D01*
X93240000Y-116010000D02*
X98740000Y-116010000D01*
X93240000Y-118010000D02*
X93240000Y-118510000D01*
X93240000Y-118510000D02*
X98740000Y-118510000D01*
X93240000Y-120510000D02*
X93240000Y-121010000D01*
X93240000Y-121010000D02*
X98740000Y-121010000D01*
X98740000Y-103010000D02*
X93240000Y-103010000D01*
X98740000Y-103510000D02*
X98740000Y-103010000D01*
X98740000Y-105510000D02*
X93240000Y-105510000D01*
X98740000Y-106010000D02*
X98740000Y-105510000D01*
X98740000Y-108010000D02*
X93240000Y-108010000D01*
X98740000Y-108510000D02*
X98740000Y-108010000D01*
X98740000Y-110510000D02*
X93240000Y-110510000D01*
X98740000Y-111010000D02*
X98740000Y-110510000D01*
X98740000Y-113010000D02*
X93240000Y-113010000D01*
X98740000Y-113510000D02*
X98740000Y-113010000D01*
X98740000Y-115510000D02*
X93240000Y-115510000D01*
X98740000Y-116010000D02*
X98740000Y-115510000D01*
X98740000Y-118010000D02*
X93240000Y-118010000D01*
X98740000Y-118510000D02*
X98740000Y-118010000D01*
X98740000Y-120510000D02*
X93240000Y-120510000D01*
X98740000Y-121010000D02*
X98740000Y-120510000D01*
X99850000Y-102120000D02*
X99850000Y-112010000D01*
X99850000Y-121900000D02*
X99850000Y-112010000D01*
X103440000Y-103260000D02*
X104040000Y-102960000D01*
X104040000Y-102960000D02*
X104040000Y-103560000D01*
X104040000Y-103560000D02*
X103440000Y-103260000D01*
X104350000Y-100700000D02*
X104350000Y-102120000D01*
X104350000Y-102120000D02*
X99850000Y-102120000D01*
X104350000Y-121900000D02*
X99850000Y-121900000D01*
X104350000Y-123320000D02*
X104350000Y-121900000D01*
%TO.C,U1*%
X132050000Y-93470000D02*
X132050000Y-122680000D01*
X132050000Y-122680000D02*
X134590000Y-122680000D01*
X134590000Y-90930000D02*
X132050000Y-93470000D01*
X134590000Y-90930000D02*
X135860000Y-90930000D01*
X134590000Y-122680000D02*
X134590000Y-127760000D01*
X134590000Y-127760000D02*
X162530000Y-127760000D01*
X142210000Y-125220000D02*
X152370000Y-125220000D01*
X142210000Y-127760000D02*
X142210000Y-125220000D01*
X142210000Y-127760000D02*
X142210000Y-134110000D01*
X142210000Y-134110000D02*
X152370000Y-134110000D01*
X152370000Y-125220000D02*
X152370000Y-127760000D01*
X152370000Y-134110000D02*
X152370000Y-127760000D01*
X159990000Y-90930000D02*
X135860000Y-90930000D01*
X159990000Y-90930000D02*
X162530000Y-93470000D01*
X162530000Y-93470000D02*
X162530000Y-127760000D01*
D12*
X134590000Y-126490000D02*
X133320000Y-126490000D01*
X133320000Y-123950000D01*
X134590000Y-123950000D01*
X134590000Y-126490000D01*
G36*
X134590000Y-126490000D02*
G01*
X133320000Y-126490000D01*
X133320000Y-123950000D01*
X134590000Y-123950000D01*
X134590000Y-126490000D01*
G37*
D13*
%TO.C,R1*%
X100250000Y-97240000D02*
X104090000Y-97240000D01*
X100250000Y-99080000D02*
X104090000Y-99080000D01*
%TD*%
M02*
