M48
; DRILL file {KiCad 8.0.6} date 2024-11-24T10:07:18-0700
; FORMAT={-:-/ absolute / metric / decimal}
; #@! TF.CreationDate,2024-11-24T10:07:18-07:00
; #@! TF.GenerationSoftware,Kicad,Pcbnew,8.0.6
; #@! TF.FileFunction,MixedPlating,1,2
FMAT,2
METRIC
; #@! TA.AperFunction,Plated,PTH,ViaDrill
T1C0.300
; #@! TA.AperFunction,Plated,PTH,ComponentDrill
T2C0.700
; #@! TA.AperFunction,Plated,PTH,ComponentDrill
T3C0.800
; #@! TA.AperFunction,Plated,PTH,ComponentDrill
T4C0.950
%
G90
G05
T1
X109.647Y-113.847
X110.481Y-118.615
X143.882Y-101.532
T2
X99.63Y-98.16
X104.71Y-98.16
T3
X107.91Y-99.65
X107.91Y-122.51
X110.45Y-99.65
X110.45Y-122.51
X112.99Y-99.65
X112.99Y-122.51
X115.34Y-106.64
X115.34Y-116.64
X115.53Y-99.65
X115.53Y-122.51
X117.84Y-106.64
X117.84Y-116.64
X118.07Y-99.65
X118.07Y-122.51
X120.34Y-106.64
X120.34Y-116.64
X120.61Y-99.65
X120.61Y-122.51
X122.84Y-106.64
X122.84Y-116.64
X123.15Y-99.65
X123.15Y-122.51
X125.34Y-106.64
X125.34Y-116.64
X125.69Y-99.65
X125.69Y-122.51
X127.84Y-106.64
X127.84Y-116.64
X133.32Y-98.55
X133.32Y-101.09
X133.32Y-103.63
X133.32Y-106.17
X133.32Y-108.71
X133.32Y-111.25
X133.32Y-113.79
X133.32Y-116.33
X133.32Y-118.87
X133.32Y-121.41
X135.86Y-98.55
X135.86Y-101.09
X135.86Y-103.63
X135.86Y-106.17
X135.86Y-108.71
X135.86Y-111.25
X135.86Y-113.79
X135.86Y-116.33
X135.86Y-118.87
X135.86Y-121.41
X158.72Y-98.55
X158.72Y-101.09
X158.72Y-103.63
X158.72Y-106.17
X158.72Y-108.71
X158.72Y-111.25
X158.72Y-113.79
X158.72Y-116.33
X158.72Y-118.87
X158.72Y-121.41
X161.26Y-98.55
X161.26Y-101.09
X161.26Y-103.63
X161.26Y-106.17
X161.26Y-108.71
X161.26Y-111.25
X161.26Y-113.79
X161.26Y-116.33
X161.26Y-118.87
X161.26Y-121.41
T4
X101.94Y-103.26
X101.94Y-105.76
X101.94Y-108.26
X101.94Y-110.76
X101.94Y-113.26
X101.94Y-115.76
X101.94Y-118.26
X101.94Y-120.76
X108.35Y-108.05
X108.35Y-110.55
X108.35Y-113.05
X108.35Y-115.55
M30
