%TF.GenerationSoftware,KiCad,Pcbnew,8.0.6*%
%TF.CreationDate,2024-11-24T10:07:13-07:00*%
%TF.ProjectId,Pellet Stove PCB,50656c6c-6574-4205-9374-6f7665205043,rev?*%
%TF.SameCoordinates,Original*%
%TF.FileFunction,Soldermask,Top*%
%TF.FilePolarity,Negative*%
%FSLAX46Y46*%
G04 Gerber Fmt 4.6, Leading zero omitted, Abs format (unit mm)*
G04 Created by KiCad (PCBNEW 8.0.6) date 2024-11-24 10:07:13*
%MOMM*%
%LPD*%
G01*
G04 APERTURE LIST*
G04 Aperture macros list*
%AMRoundRect*
0 Rectangle with rounded corners*
0 $1 Rounding radius*
0 $2 $3 $4 $5 $6 $7 $8 $9 X,Y pos of 4 corners*
0 Add a 4 corners polygon primitive as box body*
4,1,4,$2,$3,$4,$5,$6,$7,$8,$9,$2,$3,0*
0 Add four circle primitives for the rounded corners*
1,1,$1+$1,$2,$3*
1,1,$1+$1,$4,$5*
1,1,$1+$1,$6,$7*
1,1,$1+$1,$8,$9*
0 Add four rect primitives between the rounded corners*
20,1,$1+$1,$2,$3,$4,$5,0*
20,1,$1+$1,$4,$5,$6,$7,0*
20,1,$1+$1,$6,$7,$8,$9,0*
20,1,$1+$1,$8,$9,$2,$3,0*%
G04 Aperture macros list end*
%ADD10C,1.400000*%
%ADD11RoundRect,0.250000X0.725000X-0.600000X0.725000X0.600000X-0.725000X0.600000X-0.725000X-0.600000X0*%
%ADD12O,1.950000X1.700000*%
%ADD13RoundRect,0.250000X-0.725000X0.600000X-0.725000X-0.600000X0.725000X-0.600000X0.725000X0.600000X0*%
%ADD14O,1.400000X1.400000*%
G04 APERTURE END LIST*
D10*
%TO.C,J1*%
X125690000Y-99650000D03*
X123150000Y-99650000D03*
X120610000Y-99650000D03*
X118070000Y-99650000D03*
X115530000Y-99650000D03*
X112990000Y-99650000D03*
X110450000Y-99650000D03*
X107910000Y-99650000D03*
X107910000Y-122510000D03*
X110450000Y-122510000D03*
X112990000Y-122510000D03*
X115530000Y-122510000D03*
X118070000Y-122510000D03*
X120610000Y-122510000D03*
X123150000Y-122510000D03*
X125690000Y-122510000D03*
%TD*%
D11*
%TO.C,J6*%
X108350000Y-115550000D03*
D12*
X108350000Y-113050000D03*
X108350000Y-110550000D03*
X108350000Y-108050000D03*
%TD*%
D13*
%TO.C,J4*%
X101940000Y-103260000D03*
D12*
X101940000Y-105760000D03*
X101940000Y-108260000D03*
X101940000Y-110760000D03*
X101940000Y-113260000D03*
X101940000Y-115760000D03*
X101940000Y-118260000D03*
X101940000Y-120760000D03*
%TD*%
D10*
%TO.C,U1*%
X133320000Y-98550000D03*
X135860000Y-98550000D03*
X133320000Y-101090000D03*
X135860000Y-101090000D03*
X133320000Y-103630000D03*
X135860000Y-103630000D03*
X133320000Y-106170000D03*
X135860000Y-106170000D03*
X133320000Y-108710000D03*
X135860000Y-108710000D03*
X133320000Y-111250000D03*
X135860000Y-111250000D03*
X133320000Y-113790000D03*
X135860000Y-113790000D03*
X133320000Y-116330000D03*
X135860000Y-116330000D03*
X133320000Y-118870000D03*
X135860000Y-118870000D03*
X133320000Y-121410000D03*
X135860000Y-121410000D03*
X158720000Y-98550000D03*
X161260000Y-98550000D03*
X158720000Y-101090000D03*
X161260000Y-101090000D03*
X158720000Y-103630000D03*
X161260000Y-103630000D03*
X158720000Y-106170000D03*
X161260000Y-106170000D03*
X158720000Y-108710000D03*
X161260000Y-108710000D03*
X158720000Y-111250000D03*
X161260000Y-111250000D03*
X158720000Y-113790000D03*
X161260000Y-113790000D03*
X158720000Y-116330000D03*
X161260000Y-116330000D03*
X158720000Y-118870000D03*
X161260000Y-118870000D03*
X158720000Y-121410000D03*
X161260000Y-121410000D03*
%TD*%
%TO.C,J2*%
X115340000Y-116640000D03*
X117840000Y-116640000D03*
X120340000Y-116640000D03*
X122840000Y-116640000D03*
X125340000Y-116640000D03*
X127840000Y-116640000D03*
X127840000Y-106640000D03*
X125340000Y-106640000D03*
X122840000Y-106640000D03*
X120340000Y-106640000D03*
X117840000Y-106640000D03*
X115340000Y-106640000D03*
%TD*%
%TO.C,R1*%
X99630000Y-98160000D03*
D14*
X104710000Y-98160000D03*
%TD*%
M02*
